<svg width="186" height="50" viewBox="0 0 186 50" fill="none" xmlns="http://www.w3.org/2000/svg">
<path d="M52.8247 0.389648H56.526V50.0001H52.8247V0.389648ZM13.7663 24.1234H31.7533V27.5325H13.7663V24.1234ZM0 0.389648V50.0001H3.66884V3.79874H41.8832V0.389648H0Z" fill="#FF0060"/>
<path d="M167.338 0.194824H137.987V49.8053H141.689V31.2988H141.721V27.8897H141.689V3.60392H167.078C176.007 3.60392 182.111 7.7273 182.111 15.5845V15.7143C182.111 23.0845 175.877 27.8897 166.656 27.8897H155.033V31.2988H166.429C176.786 31.2988 185.78 25.9091 185.78 15.487V15.3572C185.78 5.77924 178.247 0.194824 167.338 0.194824Z" fill="#FF0060"/>
<path d="M116.526 27.9221L99.3185 0H95.7795L65.1301 49.9676H68.9613L97.5003 4.05845L112.37 27.9221H116.526ZM122.208 37.078H118.085L126.104 49.9676H130.13L122.208 37.078Z" fill="#FF0060"/>
</svg>
