<svg width="133" height="134" viewBox="0 0 133 134" fill="none" xmlns="http://www.w3.org/2000/svg">
<path d="M43.6196 130.553C52.9051 136.15 59.5292 133.827 62.0653 129.339C66.9695 120.659 83.276 102.911 109.117 96.9126C143.342 88.9676 136.195 67.8724 115.155 56.8026C94.1157 45.7328 78.3841 30.4157 80.7651 13.761C83.146 -2.89364 59.5551 -8.63504 49.0638 23.4029C42.2841 44.1071 30.1345 49.6538 22.3869 50.9871C15.0849 52.2437 7.0975 53.8204 3.20244 60.1232C-1.52396 67.7707 0.125329 75.5065 19.9137 80.8124C47.9558 88.3311 22.807 118.008 43.6196 130.553Z" fill="#FFEBF2"/>
<path d="M19.4942 94.265C19.8872 94.04 24.3224 92.1624 46.3867 102.449C46.3224 102.536 46.2951 102.578 46.2951 102.578C46.2951 102.578 23.3571 110.302 18.8628 100.786C17.5207 97.9529 17.9053 96.002 19.4559 94.287L19.4942 94.265Z" fill="#FF0060"/>
<path d="M93.6544 98.1576C88.8607 102.188 81.3431 105.113 74.0894 101.223C75.2356 100.491 76.4196 99.7361 77.6271 98.9557C84.9117 94.2751 91.3283 97.4069 93.6544 98.1576Z" fill="#FF0060"/>
<path d="M102.241 48.593C107.138 89.3754 95.4994 96.7769 94.2037 97.9012C93.8286 98.2267 93.6765 98.203 93.1094 98.057L93.0997 98.0625C90.6993 97.4261 84.9118 94.275 77.6269 98.955C76.4194 99.7354 75.2351 100.49 74.0892 101.222C66.6578 105.935 60.6567 109.257 56.3333 107.329C52.6661 105.458 49.3595 103.839 46.3869 102.449C24.3225 92.1623 19.8873 94.0398 19.4944 94.2649C19.9503 94.0166 24.1331 91.698 29.7651 87.6208C29.7843 87.6097 29.8035 87.5988 29.8076 87.5838C37.3355 82.1281 47.417 73.5307 54.6636 62.4713C59.5968 54.9508 64.4228 35.8856 73.7345 32.1448C92.8717 25.0057 101.446 40.2976 102.241 48.593Z" fill="#ED1164"/>
<path d="M81.0802 47.8775C81.6742 46.3089 81.6163 44.833 80.9509 44.581C80.2854 44.3289 79.2644 45.3962 78.6703 46.9648C78.0763 48.5335 78.1342 50.0094 78.7997 50.2614C79.4651 50.5134 80.4862 49.4461 81.0802 47.8775Z" fill="white"/>
<path d="M93.2653 49.8789C93.6863 48.2553 93.4692 46.7943 92.7803 46.6157C92.0915 46.4371 91.1918 47.6085 90.7708 49.2321C90.3498 50.8558 90.5669 52.3168 91.2558 52.4954C91.9446 52.674 92.8443 51.5026 93.2653 49.8789Z" fill="white"/>
<path d="M85.8481 55.8403C85.7483 55.8402 85.6515 55.806 85.5739 55.7433C85.4962 55.6806 85.4423 55.5933 85.4211 55.4957C85.3431 55.1426 84.9961 54.0976 84.4459 53.9423C83.8957 53.787 82.8164 54.39 82.3797 54.7063C82.2857 54.7744 82.1686 54.8023 82.054 54.784C81.9394 54.7656 81.8368 54.7025 81.7687 54.6086C81.7007 54.5146 81.6727 54.3974 81.691 54.2828C81.7094 54.1682 81.7725 54.0656 81.8665 53.9975C82.0386 53.8729 83.5798 52.7887 84.6834 53.1001C85.8345 53.4249 86.2343 55.1176 86.2759 55.3096C86.2899 55.3735 86.2893 55.4397 86.2742 55.5034C86.2592 55.567 86.2301 55.6265 86.189 55.6774C86.148 55.7283 86.096 55.7694 86.037 55.7976C85.978 55.8258 85.9134 55.8404 85.848 55.8403H85.8481Z" fill="white"/>
</svg>
